<?xml version="1.0" standalone="no"?>
<!DOCTYPE svg PUBLIC "-//W3C//DTD SVG 20010904//EN"
 "http://www.w3.org/TR/2001/REC-SVG-20010904/DTD/svg10.dtd">
<svg version="1.0" xmlns="http://www.w3.org/2000/svg"
 width="200.000000pt" height="200.000000pt" viewBox="0 0 200.000000 200.000000"
 preserveAspectRatio="xMidYMid meet">

<g transform="translate(0.000000,200.000000) scale(0.100000,-0.100000)"
fill="#000000" stroke="none">
<path d="M938 1423 c17 -2 47 -2 65 0 17 2 3 4 -33 4 -36 0 -50 -2 -32 -4z"/>
<path d="M1041 1416 c2 -2 15 -9 29 -15 24 -11 24 -11 6 3 -16 13 -49 24 -35
12z"/>
<path d="M829 1383 c-13 -16 -12 -17 4 -4 9 7 17 15 17 17 0 8 -8 3 -21 -13z"/>
<path d="M1120 1365 c13 -14 26 -25 28 -25 3 0 -5 11 -18 25 -13 14 -26 25
-28 25 -3 0 5 -11 18 -25z"/>
<path d="M770 1318 c-11 -18 -20 -40 -20 -48 1 -8 7 0 16 19 8 19 19 41 26 48
6 7 8 13 4 13 -3 0 -15 -15 -26 -32z"/>
<path d="M1161 1310 c14 -31 19 -36 19 -24 0 6 -7 19 -16 30 -14 18 -14 18 -3
-6z"/>
<path d="M940 1278 l-35 -22 97 -30 c54 -17 98 -34 98 -38 0 -16 -51 -7 -115
18 -83 33 -97 28 -54 -21 56 -64 139 -90 205 -65 33 13 39 8 24 -22 -11 -22
-10 -22 4 -4 9 11 16 25 16 32 0 7 17 23 37 35 l37 23 -27 9 c-15 5 -27 13
-27 18 0 4 -6 6 -13 3 -7 -2 -31 10 -53 27 -77 62 -135 74 -194 37z"/>
<path d="M1181 1254 c0 -11 3 -14 6 -6 3 7 2 16 -1 19 -3 4 -6 -2 -5 -13z"/>
<path d="M742 1230 c0 -14 2 -19 5 -12 2 6 2 18 0 25 -3 6 -5 1 -5 -13z"/>
<path d="M783 1198 c-11 -13 -23 -31 -26 -41 -7 -19 14 -80 31 -91 5 -3 1 11
-9 31 -21 41 -17 66 14 101 11 12 18 22 15 22 -2 0 -14 -10 -25 -22z"/>
<path d="M1119 1043 l-24 -28 28 24 c25 23 32 31 24 31 -2 0 -14 -12 -28 -27z"/>
<path d="M820 1036 c0 -2 8 -10 18 -17 15 -13 16 -12 3 4 -13 16 -21 21 -21
13z"/>
<path d="M1070 1010 c-9 -6 -10 -10 -3 -10 6 0 15 5 18 10 8 12 4 12 -15 0z"/>
<path d="M938 983 c17 -2 47 -2 65 0 17 2 3 4 -33 4 -36 0 -50 -2 -32 -4z"/>
</g>
</svg>
